<svg width="16" height="910" viewBox="0 0 16 910" fill="none" xmlns="http://www.w3.org/2000/svg">
<path d="M8.5 902L8.5 7.5" stroke="url(#paint0_linear_448_111)" stroke-width="2" stroke-dasharray="6 10"/>
<circle cx="8" cy="607" r="8" transform="rotate(-90 8 607)" fill="url(#paint1_linear_448_111)"/>
<circle cx="8" cy="607" r="4" transform="rotate(-90 8 607)" fill="white"/>
<circle cx="8" cy="315" r="8" transform="rotate(-90 8 315)" fill="url(#paint2_linear_448_111)"/>
<circle cx="8" cy="315" r="4" transform="rotate(-90 8 315)" fill="white"/>
<circle cx="8" cy="8" r="8" transform="rotate(-90 8 8)" fill="url(#paint3_linear_448_111)"/>
<circle cx="8" cy="8" r="4" transform="rotate(-90 8 8)" fill="white"/>
<circle cx="8" cy="902" r="8" transform="rotate(-90 8 902)" fill="url(#paint4_linear_448_111)"/>
<circle cx="8" cy="902" r="4" transform="rotate(-90 8 902)" fill="white"/>
<defs>
<linearGradient id="paint0_linear_448_111" x1="8.5" y1="454.75" x2="9.5" y2="454.75" gradientUnits="userSpaceOnUse">
<stop stop-color="#FED700"/>
<stop offset="1" stop-color="#C18A09"/>
</linearGradient>
<linearGradient id="paint1_linear_448_111" x1="8" y1="599" x2="8" y2="615" gradientUnits="userSpaceOnUse">
<stop stop-color="#FED700"/>
<stop offset="1" stop-color="#C18A09"/>
</linearGradient>
<linearGradient id="paint2_linear_448_111" x1="8" y1="307" x2="8" y2="323" gradientUnits="userSpaceOnUse">
<stop stop-color="#FED700"/>
<stop offset="1" stop-color="#C18A09"/>
</linearGradient>
<linearGradient id="paint3_linear_448_111" x1="8" y1="0" x2="8" y2="16" gradientUnits="userSpaceOnUse">
<stop stop-color="#FED700"/>
<stop offset="1" stop-color="#C18A09"/>
</linearGradient>
<linearGradient id="paint4_linear_448_111" x1="8" y1="894" x2="8" y2="910" gradientUnits="userSpaceOnUse">
<stop stop-color="#FED700"/>
<stop offset="1" stop-color="#C18A09"/>
</linearGradient>
</defs>
</svg>
